<mxfile host="app.diagrams.net" modified="2023-03-29T15:33:00.008Z" agent="Mozilla/5.0 (Windows NT 10.0; Win64; x64) AppleWebKit/537.36 (KHTML, like Gecko) Chrome/110.0.0.0 Safari/537.36" version="21.1.1" etag="YOC9mAqV1NbjoQKQ1Eww" type="github">
  <diagram name="第 1 页" id="Pm0yA3wo4D5-rCDpqVF5">
    <mxGraphModel>
      <root>
        <mxCell id="0" />
        <mxCell id="1" parent="0" />
      </root>
    </mxGraphModel>
  </diagram>
</mxfile>
